<svg xmlns="http://www.w3.org/2000/svg" xmlns:xlink="http://www.w3.org/1999/xlink" width="260" zoomAndPan="magnify" viewBox="0 0 194.87999 44.999999" height="60" preserveAspectRatio="xMidYMid meet" version="1.0"><defs><g/></defs><g fill="#000000" fill-opacity="1"><g transform="translate(37.305931, 28.54629)"><g><path d="M 1.332031 7.738281 C 1.101562 7.738281 1.101562 7.679688 0.871094 7.648438 C 0.40625 5.59375 2.925781 3.011719 4.230469 1.710938 C 4.519531 1.390625 5.5625 0.464844 5.910156 0.375 C 5.652344 0.839844 5.449219 2.492188 4.347656 4.722656 C 3.855469 5.707031 2.578125 7.738281 1.332031 7.738281 Z M 15.472656 -6.199219 C 15.183594 -6.054688 14.75 -5.941406 14.371094 -5.851562 C 13.417969 -5.503906 12.226562 -4.957031 11.359375 -4.519531 L 8.519531 -2.957031 C 8.199219 -2.753906 7.882812 -2.492188 7.535156 -2.375 C 7.59375 -2.957031 8.085938 -4.695312 8.230469 -5.332031 C 8.75 -7.273438 9.707031 -10.34375 10.519531 -12.171875 L 11.707031 -14.71875 C 12.519531 -16.34375 15.5625 -21.675781 17.589844 -21.789062 C 18.226562 -20.804688 17.589844 -17.9375 17.386719 -16.894531 C 16.863281 -14.371094 16.082031 -10.519531 15.761719 -8.027344 C 15.675781 -7.445312 15.617188 -6.75 15.472656 -6.199219 Z M 1.160156 8.722656 C 5.449219 8.722656 6.953125 -0.523438 7.273438 -0.839844 C 7.300781 -0.898438 8.144531 -1.507812 8.289062 -1.566406 C 10.375 -2.898438 10.433594 -2.925781 12.777344 -4.085938 C 13.820312 -4.605469 14.75 -4.867188 15.300781 -5.128906 C 15.300781 -4.316406 15.183594 -3.796875 15.097656 -3.011719 L 14.199219 5.449219 C 14.140625 6.78125 13.9375 8.894531 13.9375 9.9375 C 13.9375 10.460938 13.851562 10.546875 13.851562 11.011719 C 13.792969 11.878906 13.675781 15.214844 14.546875 15.214844 C 15.386719 15.214844 15.011719 14.488281 15.011719 12.75 C 15.011719 11.765625 15.097656 10.980469 15.097656 10.113281 L 16.488281 -4.925781 C 16.546875 -5.535156 16.574219 -5.535156 17.125 -5.652344 C 17.90625 -5.796875 18.285156 -5.824219 18.457031 -5.824219 C 18.75 -5.824219 18.402344 -5.679688 18.921875 -5.679688 C 19.53125 -5.679688 19.675781 -6.75 18.574219 -6.75 C 17.851562 -6.75 17.386719 -6.578125 16.75 -6.578125 C 16.75 -7.214844 16.863281 -7.679688 16.953125 -8.289062 C 17.328125 -10.867188 18.835938 -18.140625 18.835938 -19.996094 C 18.835938 -20.890625 18.980469 -22.71875 17.503906 -22.71875 C 16.167969 -22.71875 14.546875 -20.804688 13.910156 -19.996094 C 10.085938 -15.328125 7.738281 -8.054688 6.460938 -2.085938 C 6.289062 -1.246094 6.144531 -1.390625 4.957031 -0.40625 C 3.070312 1.160156 -0.203125 4.433594 -0.289062 7.011719 C -0.289062 7.941406 0.261719 8.722656 1.160156 8.722656 Z M 1.160156 8.722656 "/></g></g></g><g fill="#000000" fill-opacity="1"><g transform="translate(55.270022, 28.54629)"><g><path d="M 0.0273438 -3.535156 C 0.0273438 -2.550781 -0.117188 -1.128906 1.21875 -1.128906 C 2.117188 -1.128906 3.476562 -3.332031 3.941406 -4.144531 C 4.113281 -4.460938 4.519531 -5.128906 4.753906 -5.273438 C 4.753906 -3.882812 4.867188 -1.476562 6.78125 -1.476562 C 7.648438 -1.476562 8.605469 -2.085938 9.386719 -2.8125 C 9.734375 -3.128906 11.070312 -4.230469 11.070312 -4.722656 C 11.070312 -5.042969 10.835938 -5.101562 10.605469 -5.101562 C 10.054688 -5.101562 8.144531 -2.40625 6.867188 -2.40625 C 6.316406 -2.40625 5.882812 -2.898438 5.707031 -4.289062 C 5.621094 -5.042969 6 -6.953125 5.214844 -6.953125 C 4.664062 -6.953125 4.492188 -6.492188 4.113281 -5.941406 L 2.375 -3.390625 C 2.085938 -3.011719 1.769531 -2.464844 1.304688 -2.316406 C 0.871094 -4.257812 2.636719 -7.300781 2.636719 -7.417969 C 2.636719 -7.679688 2.550781 -7.679688 2.519531 -7.882812 C 2.316406 -7.996094 2.144531 -8.027344 2 -8.027344 C 1.769531 -8.027344 1.566406 -7.910156 1.363281 -7.679688 C 0.636719 -6.75 0.0273438 -4.78125 0.0273438 -3.535156 Z M 0.0273438 -3.535156 "/></g></g></g><g fill="#000000" fill-opacity="1"><g transform="translate(65.063349, 28.54629)"><g><path d="M 0 -3.96875 C 0 -2.144531 0.8125 -0.433594 2.8125 -0.433594 C 4.867188 -0.433594 6.695312 -2.433594 7.882812 -3.941406 C 8.027344 -4.113281 8.230469 -4.375 8.316406 -4.578125 C 8.492188 -4.957031 8.34375 -5.273438 8.085938 -5.273438 C 7.941406 -5.273438 7.707031 -5.128906 7.503906 -4.839844 C 6.433594 -3.390625 4.839844 -1.390625 2.839844 -1.390625 C 2.144531 -1.390625 1.824219 -1.769531 1.621094 -2.289062 C 0.925781 -3.710938 1.941406 -6.257812 2.957031 -6.953125 C 3.011719 -6.460938 3.246094 -6.199219 3.476562 -6.199219 C 3.679688 -6.199219 3.855469 -6.433594 3.855469 -6.953125 C 3.855469 -7.707031 3.507812 -8.113281 2.925781 -8.113281 C 1.246094 -8.113281 0 -5.332031 0 -3.96875 Z M 0 -3.96875 "/></g></g></g><g fill="#000000" fill-opacity="1"><g transform="translate(72.075141, 28.54629)"><g><path d="M -8.144531 -12.921875 C -8.144531 -12.519531 -7.851562 -12.429688 -7.535156 -12.429688 C -7.359375 -12.429688 -7.1875 -12.460938 -7.042969 -12.488281 C -6.78125 -13.039062 -7.070312 -12.921875 -6.347656 -13.214844 C -6 -13.359375 -5.738281 -13.5625 -5.390625 -13.707031 C -3.59375 -14.402344 -1.941406 -14.894531 -0.0273438 -15.359375 C 0.261719 -15.445312 0.925781 -15.5625 1.101562 -15.617188 L 0.839844 -12.921875 C 0.8125 -12.546875 0.78125 -11.910156 0.722656 -11.53125 C 0.578125 -10.691406 0.550781 -6.78125 0.550781 -5.679688 L 0.464844 -4.316406 C 0.464844 -2.203125 0.375 1.246094 0.550781 3.332031 C 0.550781 4.027344 0.578125 5.070312 1.332031 5.070312 C 2.085938 5.070312 1.652344 3.070312 1.652344 2.40625 C 1.59375 1.128906 1.621094 -4.664062 1.710938 -5.535156 C 1.769531 -6.144531 1.710938 -7.445312 1.710938 -8.289062 C 1.710938 -8.691406 1.796875 -8.691406 1.796875 -9.070312 C 1.796875 -9.359375 1.769531 -9.707031 1.796875 -9.96875 L 2.375 -15.910156 C 3.070312 -16.054688 7.476562 -16.894531 9.070312 -16.894531 C 9.273438 -16.894531 9.417969 -16.894531 9.535156 -16.863281 C 9.882812 -16.777344 9.792969 -16.894531 9.882812 -16.605469 C 10.980469 -16.605469 10.632812 -17.761719 9.273438 -17.761719 C 7.503906 -17.761719 5.796875 -17.472656 4.113281 -17.15625 C 3.679688 -17.097656 3.070312 -16.921875 2.609375 -16.921875 C 2.609375 -17.851562 3.1875 -17.097656 3.1875 -17.851562 C 3.1875 -18.023438 3.160156 -18.140625 3.160156 -18.226562 C 3.128906 -18.515625 3.1875 -18.285156 3.1875 -18.632812 C 3.1875 -19.097656 2.957031 -19.472656 2.636719 -19.472656 C 2.261719 -19.472656 1.796875 -18.949219 1.507812 -17.386719 C 1.304688 -16.402344 1.390625 -16.660156 0.175781 -16.34375 C -1.476562 -15.878906 -8.144531 -14.226562 -8.144531 -12.921875 Z M -8.144531 -12.921875 "/></g></g></g><g fill="#000000" fill-opacity="1"><g transform="translate(75.436169, 28.54629)"><g><path d="M 2.40625 0.117188 C 3.765625 0.117188 4.867188 -1.160156 5.5625 -1.882812 C 6.027344 -2.347656 7.765625 -4.289062 7.765625 -4.839844 C 7.765625 -5.101562 7.679688 -5.1875 7.5625 -5.1875 C 7.011719 -5.1875 5.476562 -3.128906 5.359375 -2.984375 C 4.925781 -2.433594 3.417969 -0.898438 2.492188 -0.898438 C 1.710938 -0.898438 1.390625 -2.609375 1.390625 -3.476562 C 1.390625 -6.433594 2.550781 -7.738281 1.21875 -7.738281 C 0.636719 -7.738281 0.347656 -6.433594 0.261719 -5.824219 C -0.0585938 -4.347656 0 -2.347656 0.695312 -1.042969 C 1.015625 -0.492188 1.621094 0.117188 2.40625 0.117188 Z M 1.476562 -11.386719 C 1.476562 -10.75 1.855469 -10.460938 2.261719 -10.460938 C 2.839844 -10.460938 3.449219 -11.097656 2.898438 -12.171875 C 2.722656 -12.488281 2.519531 -12.605469 2.316406 -12.605469 C 1.882812 -12.605469 1.476562 -12.054688 1.476562 -11.386719 Z M 1.476562 -11.386719 "/></g></g></g><g fill="#000000" fill-opacity="1"><g transform="translate(82.042322, 28.54629)"><g><path d="M 1.449219 -0.667969 C 0.8125 -2 2.144531 -4.605469 2.347656 -5.449219 C 3.363281 -4.78125 2.636719 -0.984375 1.449219 -0.667969 Z M 0 -1.652344 C 0 -0.144531 0.636719 0.609375 1.390625 0.609375 C 2.261719 0.609375 3.332031 -0.40625 3.765625 -2.40625 C 4.40625 -5.390625 3.011719 -5.882812 2.867188 -6.433594 C 3.011719 -6.664062 3.273438 -6.839844 3.363281 -7.042969 C 3.449219 -7.273438 3.273438 -7.738281 2.898438 -7.738281 C 1.476562 -7.738281 0 -2.957031 0 -1.652344 Z M 0 -1.652344 "/></g></g></g><g fill="#000000" fill-opacity="1"><g transform="translate(87.141805, 28.54629)"><g><path d="M 0.8125 -1.507812 C 1.941406 -1.507812 3.101562 -5.214844 4.058594 -5.851562 C 4.316406 -5.304688 3.910156 -4.144531 4.492188 -2.40625 C 4.753906 -1.621094 5.246094 -0.839844 6.144531 -0.839844 C 6.316406 -0.839844 6.492188 -0.871094 6.695312 -0.925781 C 7.359375 -1.101562 8.289062 -2.261719 8.691406 -2.78125 C 8.867188 -3.011719 10.578125 -5.15625 9.445312 -5.15625 C 8.925781 -5.15625 7.390625 -1.710938 6.230469 -1.710938 C 5.15625 -1.710938 5.101562 -4.289062 5.101562 -5.011719 L 4.925781 -6.636719 C 4.78125 -6.953125 4.578125 -7.097656 4.375 -7.097656 C 3.679688 -7.097656 2.8125 -5.621094 2.636719 -5.304688 L 1.246094 -3.1875 C 1.246094 -5.449219 3.128906 -8.171875 1.855469 -8.171875 C 0.753906 -8.171875 -1.042969 -1.507812 0.8125 -1.507812 Z M 0.8125 -1.507812 "/></g></g></g><g fill="#000000" fill-opacity="1"><g transform="translate(95.83411, 28.54629)"><g><path d="M 0.347656 4.78125 C 0.347656 3.621094 1.1875 2.316406 1.882812 1.476562 C 2.230469 1.070312 2.925781 0.203125 3.390625 -0.0585938 C 3.390625 0.753906 3.417969 1.390625 3.214844 2.058594 C 2.957031 3.011719 2.316406 4.40625 1.535156 4.984375 C 1.332031 5.15625 0.984375 5.390625 0.722656 5.390625 C 0.523438 5.390625 0.347656 5.214844 0.347656 4.78125 Z M 0.0859375 -4.695312 C 0.0859375 -3.160156 2.117188 -2.664062 3.011719 -1.015625 C 2.578125 -0.320312 -0.578125 2.171875 -0.578125 4.78125 C -0.578125 5.824219 0 6.375 0.8125 6.375 C 1.679688 6.375 2.78125 5.707031 3.621094 4.289062 C 5.5625 0.984375 4.375 -0.695312 4.492188 -1.101562 C 4.550781 -1.332031 6.605469 -2.867188 6.925781 -3.042969 L 8.894531 -4.40625 C 9.5625 -4.78125 9.621094 -5.273438 9.15625 -5.273438 C 8.894531 -5.273438 8.519531 -5.15625 8.027344 -4.808594 L 5.332031 -2.925781 C 4.898438 -2.550781 4.492188 -2.230469 4.027344 -1.914062 C 2.519531 -4.171875 0.347656 -4.085938 1.882812 -5.824219 C 2.316406 -6.316406 2.230469 -6.171875 2.925781 -6.347656 C 3.101562 -7.070312 2.839844 -7.359375 2.433594 -7.359375 C 1.59375 -7.359375 0.0859375 -6.171875 0.0859375 -4.695312 Z M 0.0859375 -4.695312 "/></g></g></g><g fill="#000000" fill-opacity="1"><g transform="translate(104.207688, 28.54629)"><g><path d="M 15.269531 1.21875 L 15.214844 1.070312 C 14.777344 -0.261719 15.011719 -1.332031 13.5625 -4.925781 C 12.113281 -8.578125 9.707031 -11.359375 6.578125 -13.707031 L 3.1875 -16.167969 C 2.78125 -16.460938 2.289062 -16.691406 2.144531 -17.183594 C 2.609375 -17.878906 4.78125 -18.515625 5.796875 -18.835938 C 7.1875 -19.242188 8.519531 -19.617188 9.9375 -19.996094 C 11.589844 -20.371094 17.183594 -21.703125 18.894531 -21.703125 C 17.15625 -14.226562 16.515625 -9.128906 15.589844 -1.796875 Z M 1.160156 -17.386719 C 1.160156 -16.660156 1.566406 -16.285156 2 -15.964844 L 4.636719 -14.082031 C 6.144531 -12.953125 8.375 -11.417969 9.589844 -9.882812 C 11.445312 -7.535156 12.691406 -5.535156 13.589844 -2.316406 C 14.226562 -0.0273438 14.777344 3.214844 14.777344 5.707031 L 14.285156 13.9375 C 14.488281 14.054688 14.546875 14.226562 14.777344 14.226562 C 15.414062 14.226562 15.386719 12.953125 15.445312 12.375 L 16.402344 2.957031 C 16.515625 2.085938 16.546875 1.390625 16.660156 0.550781 C 17.097656 -2.550781 17.386719 -5.449219 17.90625 -8.664062 L 19.472656 -17.503906 C 19.558594 -18.054688 20.226562 -21.617188 20.34375 -21.878906 C 21.414062 -21.878906 22.082031 -21.992188 23.09375 -21.992188 C 25.269531 -21.992188 29.703125 -21.355469 31.992188 -20.804688 C 32.597656 -20.632812 33.003906 -20.515625 33.265625 -20.515625 C 33.496094 -20.515625 33.585938 -20.632812 33.585938 -21.007812 C 33.585938 -22.226562 24.832031 -23.066406 23.675781 -23.183594 C 23.5 -23.183594 23.355469 -23.183594 23.152344 -23.183594 C 22.484375 -23.183594 21.703125 -23.152344 21.09375 -23.152344 C 20.921875 -23.152344 20.777344 -23.152344 20.632812 -23.152344 C 19.820312 -23.210938 20.457031 -23.441406 19.675781 -23.441406 C 19.183594 -23.441406 19.589844 -23.066406 18.691406 -22.980469 C 13.996094 -22.484375 9.300781 -21.414062 4.839844 -19.878906 L 2.695312 -18.980469 C 2.230469 -18.691406 1.160156 -18.054688 1.160156 -17.386719 Z M 1.160156 -17.386719 "/></g></g></g><g fill="#000000" fill-opacity="1"><g transform="translate(123.330753, 28.54629)"><g><path d="M 0 -2.925781 C 0 -1.882812 0.0859375 -1.390625 1.160156 -1.390625 C 2 -1.390625 2.898438 -4.113281 3.449219 -4.492188 C 3.449219 -3.246094 4.375 -1.738281 5.824219 -1.738281 C 6.316406 -1.738281 6.867188 -1.914062 7.445312 -2.316406 L 8.316406 -3.011719 C 9.792969 -4.433594 9.621094 -5.15625 9.1875 -5.15625 C 9.011719 -5.15625 8.808594 -5.070312 8.664062 -4.867188 C 8.257812 -4.433594 8.171875 -4.171875 7.621094 -3.679688 C 6.984375 -3.042969 6.375 -2.695312 5.824219 -2.695312 C 5.214844 -2.695312 4.695312 -3.160156 4.460938 -4.203125 C 4.203125 -5.304688 4.695312 -6.605469 3.679688 -6.605469 C 3.304688 -6.605469 2.117188 -4.144531 1.535156 -3.246094 L 1.304688 -2.898438 C 1.160156 -2.722656 1.246094 -2.839844 1.160156 -2.753906 C 1.160156 -3.710938 1.566406 -4.808594 1.941406 -5.417969 C 2.78125 -6.867188 3.363281 -7.273438 3.796875 -7.273438 C 4.347656 -7.273438 4.695312 -6.605469 5.101562 -6.605469 C 5.851562 -6.605469 5.101562 -8.257812 3.738281 -8.257812 C 1.710938 -8.257812 0 -4.578125 0 -2.925781 Z M 0 -2.925781 "/></g></g></g><g fill="#000000" fill-opacity="1"><g transform="translate(131.733312, 28.54629)"><g><path d="M 1.332031 3.5625 C -0.175781 3.5625 1.535156 1.941406 2.550781 1.304688 C 2.957031 1.042969 4.636719 0.117188 5.011719 0 C 4.316406 1.304688 3.070312 3.5625 1.332031 3.5625 Z M 0.40625 -1.824219 C 0.40625 -1.015625 0.261719 0.203125 1.042969 0.203125 C 1.59375 0.203125 2.027344 -2.375 3.476562 -4.144531 C 4.058594 -4.808594 4.519531 -5.101562 4.867188 -5.101562 C 5.738281 -5.101562 5.96875 -3.449219 5.59375 -1.796875 C 5.449219 -1.128906 5.417969 -1.246094 4.867188 -0.984375 C 3.449219 -0.289062 -0.175781 1.476562 -0.175781 3.160156 C -0.175781 4.058594 0.492188 4.433594 1.304688 4.433594 C 1.96875 4.433594 2.722656 4.203125 3.363281 3.796875 C 5.503906 2.492188 6.199219 -0.175781 6.433594 -0.578125 C 6.578125 -0.8125 8.605469 -1.855469 9.535156 -2.519531 C 9.996094 -2.925781 10.460938 -3.246094 10.894531 -3.710938 C 11.011719 -3.765625 12.402344 -4.984375 11.214844 -4.984375 C 11.011719 -4.984375 9.679688 -3.738281 9.15625 -3.363281 C 8.113281 -2.609375 7.882812 -2.519531 6.78125 -1.941406 C 6.78125 -2.8125 7.128906 -3.796875 6.460938 -5.070312 C 6.085938 -5.738281 5.5625 -6.054688 4.984375 -6.054688 C 4.230469 -6.054688 3.417969 -5.535156 2.8125 -4.695312 C 2.550781 -4.40625 2.316406 -4.085938 2.144531 -3.710938 L 1.507812 -2.664062 C 1.507812 -5.011719 2.316406 -11.242188 2.957031 -13.621094 C 2.984375 -13.878906 3.128906 -14.285156 3.128906 -14.371094 C 3.160156 -14.574219 2.984375 -14.921875 2.722656 -14.921875 C 2.492188 -14.921875 2.203125 -14.691406 1.914062 -13.910156 C 0.839844 -11.183594 0.40625 -4.722656 0.40625 -1.824219 Z M 0.40625 -1.824219 "/></g></g></g><g fill="#000000" fill-opacity="1"><g transform="translate(142.019198, 28.54629)"><g><path d="M 0.0585938 -2.230469 C 0.0585938 -0.347656 0.117188 3.214844 1.679688 3.214844 C 2.40625 3.214844 2.957031 2.117188 3.273438 1.621094 C 3.910156 0.550781 4.695312 -1.476562 5.304688 -2.722656 C 5.449219 -3.011719 6.347656 -4.695312 6.347656 -4.867188 C 6.347656 -5.011719 6.230469 -5.1875 6.085938 -5.1875 C 5.941406 -5.1875 5.765625 -5.070312 5.59375 -4.722656 C 4.664062 -3.070312 3.824219 -1.042969 2.957031 0.636719 C 2.636719 1.304688 2.230469 2.085938 1.59375 2.433594 C 0.289062 -0.0585938 1.914062 -9.070312 2.722656 -11.996094 C 2.8125 -12.285156 3.5625 -13.96875 2.609375 -13.96875 C 1.855469 -13.96875 1.59375 -12.519531 1.332031 -11.679688 C 0.609375 -9.011719 0.0585938 -5.101562 0.0585938 -2.230469 Z M 0.0585938 -2.230469 "/></g></g></g><g fill="#000000" fill-opacity="1"><g transform="translate(147.118681, 28.54629)"><g><path d="M 1.332031 -5.246094 C 1.535156 -5.96875 2.492188 -7.097656 3.273438 -7.246094 C 3.1875 -6.316406 2.058594 -5.621094 1.332031 -5.246094 Z M 0.0273438 -4.550781 C 0.0273438 -3.738281 0 -3.011719 0.695312 -2.316406 C 1.1875 -1.824219 1.769531 -1.621094 2.375 -1.621094 C 4.144531 -1.621094 6.144531 -3.390625 7.214844 -4.460938 C 7.476562 -4.78125 7.476562 -4.808594 7.390625 -5.246094 C 6.519531 -5.246094 6.984375 -5.128906 5.796875 -4.203125 C 5.59375 -4.058594 5.503906 -3.941406 5.273438 -3.765625 C 4.695312 -3.332031 3.476562 -2.492188 2.464844 -2.492188 C 2.117188 -2.492188 1.769531 -2.609375 1.507812 -2.867188 C 1.015625 -3.363281 1.070312 -3.824219 1.070312 -4.433594 C 1.96875 -4.492188 3.011719 -5.332031 3.476562 -5.851562 C 4.375 -6.984375 4.375 -8.144531 3.101562 -8.144531 C 1.710938 -8.144531 0.0273438 -6 0.0273438 -4.550781 Z M 0.0273438 -4.550781 "/></g></g></g></svg>