<svg xmlns="http://www.w3.org/2000/svg" xmlns:xlink="http://www.w3.org/1999/xlink" width="800" zoomAndPan="magnify" viewBox="0 0 600 74.999997" height="100" preserveAspectRatio="xMidYMid meet" version="1.0"><defs><g/></defs><rect x="-60" width="720" fill="#ffffff" y="-7.5" height="89.999996" fill-opacity="1"/><rect x="-60" width="720" fill="#ffffff" y="-7.5" height="89.999996" fill-opacity="1"/><rect x="-60" width="720" fill="#ffffff" y="-7.5" height="89.999996" fill-opacity="1"/><path stroke-linecap="butt" transform="matrix(0.75, 0, 0, 0.75, 0.000012, 37.499996)" fill="none" stroke-linejoin="miter" d="M -0.000016 2.000006 L 310.000009 2.000006 " stroke="#000000" stroke-width="4" stroke-opacity="1" stroke-miterlimit="4"/><path stroke-linecap="round" transform="matrix(3, 0, 0, 3, 233.999993, 38.999996)" fill="none" stroke-linejoin="round" d="M -2.499998 -1.499999 L -0.499998 0.000001395 L -2.499998 1.500002 " stroke="#000000" stroke-width="1" stroke-opacity="1" stroke-miterlimit="4"/><path stroke-linecap="butt" transform="matrix(-0.75, -0.000000000000000092, 0.000000000000000092, -0.75, 599.999963, 40.499996)" fill="none" stroke-linejoin="miter" d="M -0.0000493333 1.999994 L 309.999976 1.999994 " stroke="#000000" stroke-width="4" stroke-opacity="1" stroke-miterlimit="4"/><path stroke-linecap="round" transform="matrix(-3, -0.000000000000000367, 0.000000000000000367, -3, 365.999982, 38.999996)" fill="none" stroke-linejoin="round" d="M -2.500006 -1.500002 L -0.500006 -0.000001395 L -2.500006 1.499999 " stroke="#000000" stroke-width="1" stroke-opacity="1" stroke-miterlimit="4"/><g fill="#000000" fill-opacity="1"><g transform="translate(238.980461, 38.374983)"><g><path d="M 1.339844 7.765625 C 1.105469 7.765625 1.105469 7.707031 0.871094 7.679688 C 0.40625 5.613281 2.9375 3.023438 4.246094 1.714844 C 4.539062 1.394531 5.585938 0.464844 5.933594 0.378906 C 5.671875 0.84375 5.46875 2.5 4.363281 4.742188 C 3.867188 5.730469 2.589844 7.765625 1.339844 7.765625 Z M 15.53125 -6.222656 C 15.242188 -6.078125 14.804688 -5.960938 14.425781 -5.875 C 13.464844 -5.527344 12.273438 -4.972656 11.402344 -4.539062 L 8.550781 -2.964844 C 8.230469 -2.761719 7.910156 -2.5 7.5625 -2.386719 C 7.621094 -2.964844 8.113281 -4.710938 8.261719 -5.351562 C 8.785156 -7.300781 9.742188 -10.382812 10.558594 -12.214844 L 11.75 -14.773438 C 12.566406 -16.402344 15.617188 -21.753906 17.65625 -21.871094 C 18.292969 -20.882812 17.65625 -18.003906 17.449219 -16.957031 C 16.925781 -14.425781 16.140625 -10.558594 15.820312 -8.054688 C 15.734375 -7.476562 15.675781 -6.777344 15.53125 -6.222656 Z M 1.164062 8.753906 C 5.46875 8.753906 6.980469 -0.523438 7.300781 -0.84375 C 7.328125 -0.902344 8.171875 -1.511719 8.316406 -1.570312 C 10.414062 -2.910156 10.46875 -2.9375 12.828125 -4.101562 C 13.875 -4.625 14.804688 -4.886719 15.355469 -5.148438 C 15.355469 -4.332031 15.242188 -3.808594 15.152344 -3.023438 L 14.25 5.46875 C 14.195312 6.804688 13.988281 8.929688 13.988281 9.976562 C 13.988281 10.5 13.902344 10.585938 13.902344 11.050781 C 13.84375 11.925781 13.726562 15.269531 14.601562 15.269531 C 15.445312 15.269531 15.066406 14.542969 15.066406 12.796875 C 15.066406 11.808594 15.152344 11.023438 15.152344 10.152344 L 16.550781 -4.945312 C 16.609375 -5.554688 16.636719 -5.554688 17.1875 -5.671875 C 17.972656 -5.816406 18.351562 -5.847656 18.527344 -5.847656 C 18.816406 -5.847656 18.46875 -5.699219 18.992188 -5.699219 C 19.601562 -5.699219 19.75 -6.777344 18.644531 -6.777344 C 17.917969 -6.777344 17.449219 -6.601562 16.8125 -6.601562 C 16.8125 -7.242188 16.925781 -7.707031 17.015625 -8.316406 C 17.394531 -10.90625 18.90625 -18.207031 18.90625 -20.070312 C 18.90625 -20.96875 19.050781 -22.800781 17.566406 -22.800781 C 16.230469 -22.800781 14.601562 -20.882812 13.960938 -20.070312 C 10.121094 -15.386719 7.765625 -8.085938 6.484375 -2.09375 C 6.3125 -1.25 6.167969 -1.394531 4.972656 -0.40625 C 3.082031 1.164062 -0.203125 4.449219 -0.289062 7.039062 C -0.289062 7.96875 0.261719 8.753906 1.164062 8.753906 Z M 1.164062 8.753906 "/></g></g></g><g fill="#000000" fill-opacity="1"><g transform="translate(257.006495, 38.374983)"><g><path d="M 0.0273438 -3.546875 C 0.0273438 -2.558594 -0.117188 -1.132812 1.222656 -1.132812 C 2.125 -1.132812 3.488281 -3.34375 3.957031 -4.160156 C 4.128906 -4.480469 4.539062 -5.148438 4.769531 -5.292969 C 4.769531 -3.898438 4.886719 -1.484375 6.804688 -1.484375 C 7.679688 -1.484375 8.636719 -2.09375 9.421875 -2.820312 C 9.773438 -3.140625 11.109375 -4.246094 11.109375 -4.742188 C 11.109375 -5.0625 10.878906 -5.117188 10.644531 -5.117188 C 10.09375 -5.117188 8.171875 -2.414062 6.894531 -2.414062 C 6.339844 -2.414062 5.902344 -2.910156 5.730469 -4.304688 C 5.640625 -5.0625 6.019531 -6.980469 5.234375 -6.980469 C 4.683594 -6.980469 4.507812 -6.515625 4.128906 -5.960938 L 2.386719 -3.402344 C 2.09375 -3.023438 1.773438 -2.472656 1.308594 -2.328125 C 0.871094 -4.277344 2.648438 -7.328125 2.648438 -7.445312 C 2.648438 -7.707031 2.558594 -7.707031 2.53125 -7.910156 C 2.328125 -8.027344 2.152344 -8.054688 2.007812 -8.054688 C 1.773438 -8.054688 1.570312 -7.941406 1.367188 -7.707031 C 0.640625 -6.777344 0.0273438 -4.800781 0.0273438 -3.546875 Z M 0.0273438 -3.546875 "/></g></g></g><g fill="#000000" fill-opacity="1"><g transform="translate(266.833593, 38.374983)"><g><path d="M 0 -3.984375 C 0 -2.152344 0.8125 -0.4375 2.820312 -0.4375 C 4.886719 -0.4375 6.71875 -2.441406 7.910156 -3.957031 C 8.054688 -4.128906 8.261719 -4.390625 8.347656 -4.59375 C 8.523438 -4.972656 8.375 -5.292969 8.113281 -5.292969 C 7.96875 -5.292969 7.738281 -5.148438 7.53125 -4.855469 C 6.457031 -3.402344 4.855469 -1.394531 2.851562 -1.394531 C 2.152344 -1.394531 1.832031 -1.773438 1.628906 -2.296875 C 0.929688 -3.722656 1.949219 -6.28125 2.964844 -6.980469 C 3.023438 -6.484375 3.257812 -6.222656 3.488281 -6.222656 C 3.695312 -6.222656 3.867188 -6.457031 3.867188 -6.980469 C 3.867188 -7.738281 3.519531 -8.144531 2.9375 -8.144531 C 1.25 -8.144531 0 -5.351562 0 -3.984375 Z M 0 -3.984375 "/></g></g></g><g fill="#000000" fill-opacity="1"><g transform="translate(273.869558, 38.374983)"><g><path d="M -8.171875 -12.972656 C -8.171875 -12.566406 -7.882812 -12.476562 -7.5625 -12.476562 C -7.386719 -12.476562 -7.214844 -12.507812 -7.066406 -12.535156 C -6.804688 -13.089844 -7.097656 -12.972656 -6.371094 -13.261719 C -6.019531 -13.40625 -5.757812 -13.613281 -5.410156 -13.757812 C -3.605469 -14.457031 -1.949219 -14.949219 -0.0273438 -15.414062 C 0.261719 -15.503906 0.929688 -15.617188 1.105469 -15.675781 L 0.84375 -12.972656 C 0.8125 -12.59375 0.785156 -11.953125 0.726562 -11.574219 C 0.582031 -10.730469 0.550781 -6.804688 0.550781 -5.699219 L 0.464844 -4.332031 C 0.464844 -2.210938 0.378906 1.25 0.550781 3.34375 C 0.550781 4.042969 0.582031 5.089844 1.339844 5.089844 C 2.09375 5.089844 1.65625 3.082031 1.65625 2.414062 C 1.601562 1.132812 1.628906 -4.683594 1.714844 -5.554688 C 1.773438 -6.167969 1.714844 -7.476562 1.714844 -8.316406 C 1.714844 -8.726562 1.804688 -8.726562 1.804688 -9.105469 C 1.804688 -9.394531 1.773438 -9.742188 1.804688 -10.003906 L 2.386719 -15.96875 C 3.082031 -16.113281 7.503906 -16.957031 9.105469 -16.957031 C 9.308594 -16.957031 9.453125 -16.957031 9.570312 -16.925781 C 9.917969 -16.839844 9.832031 -16.957031 9.917969 -16.664062 C 11.023438 -16.664062 10.675781 -17.828125 9.308594 -17.828125 C 7.53125 -17.828125 5.816406 -17.539062 4.128906 -17.21875 C 3.695312 -17.160156 3.082031 -16.984375 2.617188 -16.984375 C 2.617188 -17.917969 3.199219 -17.160156 3.199219 -17.917969 C 3.199219 -18.089844 3.171875 -18.207031 3.171875 -18.292969 C 3.140625 -18.585938 3.199219 -18.351562 3.199219 -18.703125 C 3.199219 -19.167969 2.964844 -19.546875 2.648438 -19.546875 C 2.269531 -19.546875 1.804688 -19.023438 1.511719 -17.449219 C 1.308594 -16.460938 1.394531 -16.722656 0.175781 -16.402344 C -1.484375 -15.9375 -8.171875 -14.28125 -8.171875 -12.972656 Z M -8.171875 -12.972656 "/></g></g></g><g fill="#000000" fill-opacity="1"><g transform="translate(277.242166, 38.374983)"><g><path d="M 2.414062 0.117188 C 3.78125 0.117188 4.886719 -1.164062 5.585938 -1.890625 C 6.050781 -2.355469 7.792969 -4.304688 7.792969 -4.855469 C 7.792969 -5.117188 7.707031 -5.207031 7.589844 -5.207031 C 7.039062 -5.207031 5.496094 -3.140625 5.378906 -2.996094 C 4.945312 -2.441406 3.433594 -0.902344 2.5 -0.902344 C 1.714844 -0.902344 1.394531 -2.617188 1.394531 -3.488281 C 1.394531 -6.457031 2.558594 -7.765625 1.222656 -7.765625 C 0.640625 -7.765625 0.347656 -6.457031 0.261719 -5.847656 C -0.0585938 -4.363281 0 -2.355469 0.699219 -1.046875 C 1.019531 -0.496094 1.628906 0.117188 2.414062 0.117188 Z M 1.484375 -11.429688 C 1.484375 -10.789062 1.863281 -10.5 2.269531 -10.5 C 2.851562 -10.5 3.460938 -11.140625 2.910156 -12.214844 C 2.734375 -12.535156 2.53125 -12.652344 2.328125 -12.652344 C 1.890625 -12.652344 1.484375 -12.097656 1.484375 -11.429688 Z M 1.484375 -11.429688 "/></g></g></g><g fill="#000000" fill-opacity="1"><g transform="translate(283.871098, 38.374983)"><g><path d="M 1.453125 -0.667969 C 0.8125 -2.007812 2.152344 -4.625 2.355469 -5.46875 C 3.375 -4.800781 2.648438 -0.988281 1.453125 -0.667969 Z M 0 -1.65625 C 0 -0.144531 0.640625 0.609375 1.394531 0.609375 C 2.269531 0.609375 3.34375 -0.40625 3.78125 -2.414062 C 4.421875 -5.410156 3.023438 -5.902344 2.878906 -6.457031 C 3.023438 -6.691406 3.285156 -6.863281 3.375 -7.066406 C 3.460938 -7.300781 3.285156 -7.765625 2.910156 -7.765625 C 1.484375 -7.765625 0 -2.964844 0 -1.65625 Z M 0 -1.65625 "/></g></g></g><g fill="#000000" fill-opacity="1"><g transform="translate(288.988163, 38.374983)"><g><path d="M 0.8125 -1.511719 C 1.949219 -1.511719 3.113281 -5.234375 4.070312 -5.875 C 4.332031 -5.324219 3.925781 -4.160156 4.507812 -2.414062 C 4.769531 -1.628906 5.265625 -0.84375 6.167969 -0.84375 C 6.339844 -0.84375 6.515625 -0.871094 6.71875 -0.929688 C 7.386719 -1.105469 8.316406 -2.269531 8.726562 -2.792969 C 8.898438 -3.023438 10.617188 -5.175781 9.480469 -5.175781 C 8.957031 -5.175781 7.417969 -1.714844 6.253906 -1.714844 C 5.175781 -1.714844 5.117188 -4.304688 5.117188 -5.03125 L 4.945312 -6.660156 C 4.800781 -6.980469 4.59375 -7.125 4.390625 -7.125 C 3.695312 -7.125 2.820312 -5.640625 2.648438 -5.324219 L 1.25 -3.199219 C 1.25 -5.46875 3.140625 -8.203125 1.863281 -8.203125 C 0.757812 -8.203125 -1.046875 -1.511719 0.8125 -1.511719 Z M 0.8125 -1.511719 "/></g></g></g><g fill="#000000" fill-opacity="1"><g transform="translate(297.710437, 38.374983)"><g><path d="M 0.347656 4.800781 C 0.347656 3.636719 1.191406 2.328125 1.890625 1.484375 C 2.238281 1.074219 2.9375 0.203125 3.402344 -0.0585938 C 3.402344 0.757812 3.433594 1.394531 3.226562 2.066406 C 2.964844 3.023438 2.328125 4.421875 1.542969 5.003906 C 1.339844 5.175781 0.988281 5.410156 0.726562 5.410156 C 0.523438 5.410156 0.347656 5.234375 0.347656 4.800781 Z M 0.0859375 -4.710938 C 0.0859375 -3.171875 2.125 -2.675781 3.023438 -1.019531 C 2.589844 -0.320312 -0.582031 2.179688 -0.582031 4.800781 C -0.582031 5.847656 0 6.398438 0.8125 6.398438 C 1.6875 6.398438 2.792969 5.730469 3.636719 4.304688 C 5.585938 0.988281 4.390625 -0.699219 4.507812 -1.105469 C 4.566406 -1.339844 6.632812 -2.878906 6.953125 -3.054688 L 8.929688 -4.421875 C 9.597656 -4.800781 9.65625 -5.292969 9.191406 -5.292969 C 8.929688 -5.292969 8.550781 -5.175781 8.054688 -4.828125 L 5.351562 -2.9375 C 4.914062 -2.558594 4.507812 -2.238281 4.042969 -1.917969 C 2.53125 -4.1875 0.347656 -4.101562 1.890625 -5.847656 C 2.328125 -6.339844 2.238281 -6.195312 2.9375 -6.371094 C 3.113281 -7.097656 2.851562 -7.386719 2.441406 -7.386719 C 1.601562 -7.386719 0.0859375 -6.195312 0.0859375 -4.710938 Z M 0.0859375 -4.710938 "/></g></g></g><g fill="#000000" fill-opacity="1"><g transform="translate(306.112895, 38.374983)"><g><path d="M 15.328125 1.222656 L 15.269531 1.074219 C 14.832031 -0.261719 15.066406 -1.339844 13.613281 -4.945312 C 12.15625 -8.609375 9.742188 -11.402344 6.601562 -13.757812 L 3.199219 -16.230469 C 2.792969 -16.519531 2.296875 -16.753906 2.152344 -17.246094 C 2.617188 -17.945312 4.800781 -18.585938 5.816406 -18.90625 C 7.214844 -19.3125 8.550781 -19.691406 9.976562 -20.070312 C 11.632812 -20.445312 17.246094 -21.785156 18.964844 -21.785156 C 17.21875 -14.28125 16.578125 -9.160156 15.648438 -1.804688 Z M 1.164062 -17.449219 C 1.164062 -16.722656 1.570312 -16.347656 2.007812 -16.027344 L 4.652344 -14.136719 C 6.167969 -13 8.40625 -11.460938 9.628906 -9.917969 C 11.488281 -7.5625 12.738281 -5.554688 13.640625 -2.328125 C 14.28125 -0.0273438 14.832031 3.226562 14.832031 5.730469 L 14.339844 13.988281 C 14.542969 14.105469 14.601562 14.28125 14.832031 14.28125 C 15.472656 14.28125 15.445312 13 15.503906 12.417969 L 16.460938 2.964844 C 16.578125 2.09375 16.609375 1.394531 16.722656 0.550781 C 17.160156 -2.558594 17.449219 -5.46875 17.972656 -8.695312 L 19.546875 -17.566406 C 19.632812 -18.121094 20.300781 -21.699219 20.417969 -21.960938 C 21.492188 -21.960938 22.164062 -22.074219 23.179688 -22.074219 C 25.363281 -22.074219 29.8125 -21.4375 32.109375 -20.882812 C 32.71875 -20.707031 33.128906 -20.59375 33.390625 -20.59375 C 33.621094 -20.59375 33.710938 -20.707031 33.710938 -21.085938 C 33.710938 -22.308594 24.925781 -23.152344 23.761719 -23.269531 C 23.589844 -23.269531 23.441406 -23.269531 23.238281 -23.269531 C 22.570312 -23.269531 21.785156 -23.238281 21.175781 -23.238281 C 21 -23.238281 20.855469 -23.238281 20.707031 -23.238281 C 19.894531 -23.296875 20.535156 -23.53125 19.75 -23.53125 C 19.253906 -23.53125 19.660156 -23.152344 18.761719 -23.0625 C 14.046875 -22.570312 9.335938 -21.492188 4.855469 -19.953125 L 2.703125 -19.050781 C 2.238281 -18.761719 1.164062 -18.121094 1.164062 -17.449219 Z M 1.164062 -17.449219 "/></g></g></g><g fill="#000000" fill-opacity="1"><g transform="translate(325.3019, 38.374983)"><g><path d="M 0 -2.9375 C 0 -1.890625 0.0859375 -1.394531 1.164062 -1.394531 C 2.007812 -1.394531 2.910156 -4.128906 3.460938 -4.507812 C 3.460938 -3.257812 4.390625 -1.746094 5.847656 -1.746094 C 6.339844 -1.746094 6.894531 -1.917969 7.476562 -2.328125 L 8.347656 -3.023438 C 9.832031 -4.449219 9.65625 -5.175781 9.21875 -5.175781 C 9.046875 -5.175781 8.84375 -5.089844 8.695312 -4.886719 C 8.289062 -4.449219 8.203125 -4.1875 7.648438 -3.695312 C 7.007812 -3.054688 6.398438 -2.703125 5.847656 -2.703125 C 5.234375 -2.703125 4.710938 -3.171875 4.480469 -4.21875 C 4.21875 -5.324219 4.710938 -6.632812 3.695312 -6.632812 C 3.316406 -6.632812 2.125 -4.160156 1.542969 -3.257812 L 1.308594 -2.910156 C 1.164062 -2.734375 1.25 -2.851562 1.164062 -2.761719 C 1.164062 -3.722656 1.570312 -4.828125 1.949219 -5.4375 C 2.792969 -6.894531 3.375 -7.300781 3.808594 -7.300781 C 4.363281 -7.300781 4.710938 -6.632812 5.117188 -6.632812 C 5.875 -6.632812 5.117188 -8.289062 3.753906 -8.289062 C 1.714844 -8.289062 0 -4.59375 0 -2.9375 Z M 0 -2.9375 "/></g></g></g><g fill="#000000" fill-opacity="1"><g transform="translate(333.733437, 38.374983)"><g><path d="M 1.339844 3.578125 C -0.175781 3.578125 1.542969 1.949219 2.558594 1.308594 C 2.964844 1.046875 4.652344 0.117188 5.03125 0 C 4.332031 1.308594 3.082031 3.578125 1.339844 3.578125 Z M 0.40625 -1.832031 C 0.40625 -1.019531 0.261719 0.203125 1.046875 0.203125 C 1.601562 0.203125 2.035156 -2.386719 3.488281 -4.160156 C 4.070312 -4.828125 4.539062 -5.117188 4.886719 -5.117188 C 5.757812 -5.117188 5.992188 -3.460938 5.613281 -1.804688 C 5.46875 -1.132812 5.4375 -1.25 4.886719 -0.988281 C 3.460938 -0.289062 -0.175781 1.484375 -0.175781 3.171875 C -0.175781 4.070312 0.496094 4.449219 1.308594 4.449219 C 1.976562 4.449219 2.734375 4.21875 3.375 3.808594 C 5.527344 2.5 6.222656 -0.175781 6.457031 -0.582031 C 6.601562 -0.8125 8.636719 -1.863281 9.570312 -2.53125 C 10.035156 -2.9375 10.5 -3.257812 10.9375 -3.722656 C 11.050781 -3.78125 12.449219 -5.003906 11.257812 -5.003906 C 11.050781 -5.003906 9.714844 -3.753906 9.191406 -3.375 C 8.144531 -2.617188 7.910156 -2.53125 6.804688 -1.949219 C 6.804688 -2.820312 7.15625 -3.808594 6.484375 -5.089844 C 6.109375 -5.757812 5.585938 -6.078125 5.003906 -6.078125 C 4.246094 -6.078125 3.433594 -5.554688 2.820312 -4.710938 C 2.558594 -4.421875 2.328125 -4.101562 2.152344 -3.722656 L 1.511719 -2.675781 C 1.511719 -5.03125 2.328125 -11.285156 2.964844 -13.671875 C 2.996094 -13.933594 3.140625 -14.339844 3.140625 -14.425781 C 3.171875 -14.628906 2.996094 -14.980469 2.734375 -14.980469 C 2.5 -14.980469 2.210938 -14.746094 1.917969 -13.960938 C 0.84375 -11.226562 0.40625 -4.742188 0.40625 -1.832031 Z M 0.40625 -1.832031 "/></g></g></g><g fill="#000000" fill-opacity="1"><g transform="translate(344.054793, 38.374983)"><g><path d="M 0.0585938 -2.238281 C 0.0585938 -0.347656 0.117188 3.226562 1.6875 3.226562 C 2.414062 3.226562 2.964844 2.125 3.285156 1.628906 C 3.925781 0.550781 4.710938 -1.484375 5.324219 -2.734375 C 5.46875 -3.023438 6.371094 -4.710938 6.371094 -4.886719 C 6.371094 -5.03125 6.253906 -5.207031 6.109375 -5.207031 C 5.960938 -5.207031 5.789062 -5.089844 5.613281 -4.742188 C 4.683594 -3.082031 3.839844 -1.046875 2.964844 0.640625 C 2.648438 1.308594 2.238281 2.09375 1.601562 2.441406 C 0.289062 -0.0585938 1.917969 -9.105469 2.734375 -12.042969 C 2.820312 -12.332031 3.578125 -14.019531 2.617188 -14.019531 C 1.863281 -14.019531 1.601562 -12.566406 1.339844 -11.722656 C 0.609375 -9.046875 0.0585938 -5.117188 0.0585938 -2.238281 Z M 0.0585938 -2.238281 "/></g></g></g><g fill="#000000" fill-opacity="1"><g transform="translate(349.171858, 38.374983)"><g><path d="M 1.339844 -5.265625 C 1.542969 -5.992188 2.5 -7.125 3.285156 -7.269531 C 3.199219 -6.339844 2.066406 -5.640625 1.339844 -5.265625 Z M 0.0273438 -4.566406 C 0.0273438 -3.753906 0 -3.023438 0.699219 -2.328125 C 1.191406 -1.832031 1.773438 -1.628906 2.386719 -1.628906 C 4.160156 -1.628906 6.167969 -3.402344 7.242188 -4.480469 C 7.503906 -4.800781 7.503906 -4.828125 7.417969 -5.265625 C 6.542969 -5.265625 7.007812 -5.148438 5.816406 -4.21875 C 5.613281 -4.070312 5.527344 -3.957031 5.292969 -3.78125 C 4.710938 -3.34375 3.488281 -2.5 2.472656 -2.5 C 2.125 -2.5 1.773438 -2.617188 1.511719 -2.878906 C 1.019531 -3.375 1.074219 -3.839844 1.074219 -4.449219 C 1.976562 -4.507812 3.023438 -5.351562 3.488281 -5.875 C 4.390625 -7.007812 4.390625 -8.171875 3.113281 -8.171875 C 1.714844 -8.171875 0.0273438 -6.019531 0.0273438 -4.566406 Z M 0.0273438 -4.566406 "/></g></g></g></svg>